<svg width="2218.2" height="434.42" viewBox="0 0 2218.2 434.42" 
    xmlns="http://www.w3.org/2000/svg">
    <g id="svgGroup" stroke-linecap="round" fill-rule="evenodd" fill="#2c5282">
        <path d="M 868.2 49.81 L 826.8 92.41 Q 808.8 76.81 792.6 69.91 Q 776.4 63.01 756.6 63.01 A 69.609 69.609 0 0 0 726.408 69.38 Q 711.641 76.381 700.89 91.078 A 91.199 91.199 0 0 0 696.6 97.51 A 105.474 105.474 0 0 0 686.214 121.692 Q 675.6 156.638 675.6 217.21 Q 675.6 277.21 683.1 310.81 A 168.478 168.478 0 0 0 687.828 327.987 Q 693.613 345.112 701.998 354.552 A 41.769 41.769 0 0 0 705 357.61 A 48.798 48.798 0 0 0 727.873 369.214 A 71.563 71.563 0 0 0 743.4 370.81 Q 767.4 370.81 789.6 356.41 L 789.6 250.21 L 745.8 250.21 L 737.4 189.01 L 869.4 189.01 L 869.4 392.41 Q 843 412.21 810.3 423.01 Q 777.6 433.81 744.6 433.81 A 189.112 189.112 0 0 1 698.018 428.423 A 123.374 123.374 0 0 1 626.7 381.31 A 163.275 163.275 0 0 1 604.077 336.442 Q 588 288.926 588 216.61 Q 588 159.376 601.649 116.928 A 208.971 208.971 0 0 1 609.6 96.01 A 193.149 193.149 0 0 1 630.601 59.435 A 141.609 141.609 0 0 1 668.4 23.71 A 152.041 152.041 0 0 1 744.202 0.218 A 184.097 184.097 0 0 1 753 0.01 A 166.264 166.264 0 0 1 788.496 3.651 A 134.157 134.157 0 0 1 816.3 12.91 A 174.559 174.559 0 0 1 857.416 39.757 A 207.048 207.048 0 0 1 868.2 49.81 Z M 1035 424.81 L 925.2 424.81 L 925.2 9.61 L 1021.2 9.61 A 315.452 315.452 0 0 1 1063.382 12.247 Q 1106.269 18.047 1133.7 36.61 Q 1173.6 63.61 1173.6 115.81 A 101.988 101.988 0 0 1 1170.193 142.804 A 78.218 78.218 0 0 1 1154.1 173.41 A 99.483 99.483 0 0 1 1112.554 202.017 A 124.25 124.25 0 0 1 1102.8 205.21 A 146.783 146.783 0 0 1 1132.876 214.967 A 106.651 106.651 0 0 1 1164.9 237.01 A 75.153 75.153 0 0 1 1183.175 268.612 Q 1188 284.518 1188 304.81 A 143.715 143.715 0 0 1 1183.783 340.753 A 93.724 93.724 0 0 1 1146.9 395.41 Q 1113.017 419.647 1058.949 423.903 A 305.359 305.359 0 0 1 1035 424.81 Z M 0 9.61 L 85.2 9.61 L 85.2 356.41 L 217.2 356.41 L 208.2 424.81 L 0 424.81 L 0 9.61 Z M 444.826 7.291 A 163.181 163.181 0 0 0 394.8 0.01 A 183.611 183.611 0 0 0 374.551 1.096 A 129.544 129.544 0 0 0 280.2 54.91 A 177.89 177.89 0 0 0 255.501 104.069 Q 240 150.518 240 217.21 Q 240 285.46 255.586 332.147 A 172.502 172.502 0 0 0 279.9 380.41 A 126.481 126.481 0 0 0 345.427 427.436 A 165.625 165.625 0 0 0 394.8 434.41 A 184.609 184.609 0 0 0 415.049 433.33 A 129.698 129.698 0 0 0 509.4 379.81 A 176.675 176.675 0 0 0 534.372 329.925 Q 549.6 283.682 549.6 217.21 A 584.528 584.528 0 0 0 549.585 212.965 Q 548.815 106.955 509.4 54.01 A 127.507 127.507 0 0 0 444.826 7.291 Z M 1423.426 7.291 A 163.181 163.181 0 0 0 1373.4 0.01 A 183.611 183.611 0 0 0 1353.151 1.096 A 129.544 129.544 0 0 0 1258.8 54.91 A 177.89 177.89 0 0 0 1234.101 104.069 Q 1218.6 150.518 1218.6 217.21 Q 1218.6 285.46 1234.186 332.147 A 172.502 172.502 0 0 0 1258.5 380.41 A 126.481 126.481 0 0 0 1324.027 427.436 A 165.625 165.625 0 0 0 1373.4 434.41 A 184.609 184.609 0 0 0 1393.649 433.33 A 129.698 129.698 0 0 0 1488 379.81 A 176.675 176.675 0 0 0 1512.972 329.925 Q 1528.2 283.682 1528.2 217.21 A 584.528 584.528 0 0 0 1528.185 212.965 Q 1527.415 106.955 1488 54.01 A 127.507 127.507 0 0 0 1423.426 7.291 Z M 1771.426 7.291 A 163.181 163.181 0 0 0 1721.4 0.01 A 183.611 183.611 0 0 0 1701.151 1.096 A 129.544 129.544 0 0 0 1606.8 54.91 A 177.89 177.89 0 0 0 1582.101 104.069 Q 1566.6 150.518 1566.6 217.21 Q 1566.6 285.46 1582.186 332.147 A 172.502 172.502 0 0 0 1606.5 380.41 A 126.481 126.481 0 0 0 1672.027 427.436 A 165.625 165.625 0 0 0 1721.4 434.41 A 184.609 184.609 0 0 0 1741.649 433.33 A 129.698 129.698 0 0 0 1836 379.81 A 176.675 176.675 0 0 0 1860.972 329.925 Q 1876.2 283.682 1876.2 217.21 A 584.528 584.528 0 0 0 1876.185 212.965 Q 1875.415 106.955 1836 54.01 A 127.507 127.507 0 0 0 1771.426 7.291 Z M 2124.6 9.61 L 2209.2 9.61 L 2100.6 196.81 L 2218.2 424.81 L 2125.2 424.81 L 2014.8 203.41 L 2124.6 9.61 Z M 1927.2 9.61 L 2012.4 9.61 L 2012.4 424.81 L 1927.2 424.81 L 1927.2 9.61 Z M 394.8 63.61 A 51.321 51.321 0 0 0 367.502 70.817 Q 353.259 79.515 344.4 98.71 Q 331.406 126.864 328.834 186.092 A 719.263 719.263 0 0 0 328.2 217.21 Q 328.2 301.81 344.4 336.31 Q 360.6 370.81 394.8 370.81 Q 418.2 370.81 432.6 356.41 Q 446.23 342.78 453.409 311.95 A 204.991 204.991 0 0 0 454.2 308.41 Q 461.071 276.344 461.385 222.419 A 895.537 895.537 0 0 0 461.4 217.21 Q 461.4 152.41 451.62 116.768 A 117.314 117.314 0 0 0 445.2 98.71 Q 429 63.61 394.8 63.61 Z M 1373.4 63.61 A 51.321 51.321 0 0 0 1346.102 70.817 Q 1331.859 79.515 1323 98.71 Q 1310.006 126.864 1307.434 186.092 A 719.263 719.263 0 0 0 1306.8 217.21 Q 1306.8 301.81 1323 336.31 Q 1339.2 370.81 1373.4 370.81 Q 1396.8 370.81 1411.2 356.41 Q 1424.83 342.78 1432.009 311.95 A 204.991 204.991 0 0 0 1432.8 308.41 Q 1439.671 276.344 1439.985 222.419 A 895.537 895.537 0 0 0 1440 217.21 Q 1440 152.41 1430.22 116.768 A 117.314 117.314 0 0 0 1423.8 98.71 Q 1407.6 63.61 1373.4 63.61 Z M 1721.4 63.61 A 51.321 51.321 0 0 0 1694.102 70.817 Q 1679.859 79.515 1671 98.71 Q 1658.006 126.864 1655.434 186.092 A 719.263 719.263 0 0 0 1654.8 217.21 Q 1654.8 301.81 1671 336.31 Q 1687.2 370.81 1721.4 370.81 Q 1744.8 370.81 1759.2 356.41 Q 1772.83 342.78 1780.009 311.95 A 204.991 204.991 0 0 0 1780.8 308.41 Q 1787.671 276.344 1787.985 222.419 A 895.537 895.537 0 0 0 1788 217.21 Q 1788 152.41 1778.22 116.768 A 117.314 117.314 0 0 0 1771.8 98.71 Q 1755.6 63.61 1721.4 63.61 Z M 1037.4 237.01 L 1010.4 237.01 L 1010.4 361.81 L 1035.6 361.81 A 118.858 118.858 0 0 0 1053.868 360.501 Q 1073.027 357.514 1084.5 347.71 Q 1097.491 336.608 1100.254 314.162 A 106.198 106.198 0 0 0 1101 301.21 A 112.767 112.767 0 0 0 1099.687 283.367 Q 1096.518 263.64 1085.7 252.61 A 46.393 46.393 0 0 0 1068.2 241.675 Q 1060.827 238.978 1051.685 237.84 A 115.853 115.853 0 0 0 1037.4 237.01 Z M 1029 70.81 L 1010.4 70.81 L 1010.4 178.81 L 1032 178.81 A 97.03 97.03 0 0 0 1047.256 177.695 Q 1055.278 176.414 1061.61 173.664 A 38.555 38.555 0 0 0 1074.6 164.71 Q 1085.686 152.868 1087.461 131.927 A 98.508 98.508 0 0 0 1087.8 123.61 A 82.083 82.083 0 0 0 1086.557 108.821 Q 1083.614 92.78 1073.7 83.71 A 42.439 42.439 0 0 0 1059.521 75.358 Q 1053.055 72.977 1044.996 71.843 A 115.098 115.098 0 0 0 1029 70.81 Z" vector-effect="non-scaling-stroke"/>
    </g>
</svg>