<?xml version="1.0" encoding="UTF-8" standalone="no"?>
<!-- Generator: Adobe Illustrator 18.1.1, SVG Export Plug-In . SVG Version: 6.00 Build 0)  -->

<svg
   xmlns:dc="http://purl.org/dc/elements/1.1/"
   xmlns:cc="http://creativecommons.org/ns#"
   xmlns:rdf="http://www.w3.org/1999/02/22-rdf-syntax-ns#"
   xmlns:svg="http://www.w3.org/2000/svg"
   xmlns="http://www.w3.org/2000/svg"
   xmlns:sodipodi="http://sodipodi.sourceforge.net/DTD/sodipodi-0.dtd"
   xmlns:inkscape="http://www.inkscape.org/namespaces/inkscape"
   version="1.1"
   id="Capa_1"
   x="0px"
   y="0px"
   viewBox="0 0 306.094 306.094"
   style="enable-background:new 0 0 306.094 306.094;"
   xml:space="preserve"
   sodipodi:docname="work-agenda.svg"
   inkscape:version="0.92.4 (5da689c313, 2019-01-14)"><metadata
   id="metadata3893"><rdf:RDF><cc:Work
       rdf:about=""><dc:format>image/svg+xml</dc:format><dc:type
         rdf:resource="http://purl.org/dc/dcmitype/StillImage" /><dc:title></dc:title></cc:Work></rdf:RDF></metadata><defs
   id="defs3891" /><sodipodi:namedview
   pagecolor="#ffffff"
   bordercolor="#666666"
   borderopacity="1"
   objecttolerance="10"
   gridtolerance="10"
   guidetolerance="10"
   inkscape:pageopacity="0"
   inkscape:pageshadow="2"
   inkscape:window-width="1920"
   inkscape:window-height="1017"
   id="namedview3889"
   showgrid="false"
   inkscape:zoom="0.771005"
   inkscape:cx="153.047"
   inkscape:cy="153.047"
   inkscape:window-x="-8"
   inkscape:window-y="-8"
   inkscape:window-maximized="1"
   inkscape:current-layer="Capa_1" />
<g
   id="g3856"
   style="fill:#ffffff">
	<g
   id="Layer_5_27_"
   style="fill:#ffffff">
		<g
   id="g3853"
   style="fill:#ffffff">
			<path
   d="M274.254,131.297h-40.095c-3.3,0-6,2.7-6,6v31.502c0,3.3,2.7,6,6,6h39.72c0,0,4.366,0,4.366-4.373     c0-9.782,0-26.406,0-35.208C278.245,131.297,274.254,131.297,274.254,131.297z"
   id="path3849"
   style="fill:#ffffff" />
			<path
   d="M212.154,109.291c0,0,43.575-0.079,58.101,0c2.695,0.015,7.991,0.088,7.991-7.239c0-24.138,0-87.052,0-87.052     c0-8.25-6.75-15-15-15H42.848c-8.25,0-15,6.75-15,15v276.094c0,8.25,6.75,15,15,15h220.397c8.25,0,15-6.75,15-15     c0,0,0-61.026,0-85.287c0-7.5-3.616-9.002-8.742-9.002c-14.337,0-57.35,0-57.35,0c-3.3,0-6-2.7-6-6v-75.514     C206.154,111.991,208.853,109.291,212.154,109.291z M141.553,144.005c0,4.95-4.05,9-9,9h-50.5c-4.95,0-9-4.05-9-9v-6     c0-4.95,4.05-9,9-9h50.5c4.95,0,9,4.05,9,9V144.005z M182.053,86.492c0,4.95-4.05,9-9,9h-91c-4.95,0-9-4.05-9-9v-6     c0-4.95,4.05-9,9-9h91c4.95,0,9,4.05,9,9V86.492z"
   id="path3851"
   style="fill:#ffffff" />
		</g>
	</g>
</g>
<g
   id="g3858">
</g>
<g
   id="g3860">
</g>
<g
   id="g3862">
</g>
<g
   id="g3864">
</g>
<g
   id="g3866">
</g>
<g
   id="g3868">
</g>
<g
   id="g3870">
</g>
<g
   id="g3872">
</g>
<g
   id="g3874">
</g>
<g
   id="g3876">
</g>
<g
   id="g3878">
</g>
<g
   id="g3880">
</g>
<g
   id="g3882">
</g>
<g
   id="g3884">
</g>
<g
   id="g3886">
</g>
</svg>